<mxfile host="app.diagrams.net" agent="Mozilla/5.0 (Macintosh; Intel Mac OS X 10_15_7) AppleWebKit/537.36 (KHTML, like Gecko) Chrome/130.0.0.0 Safari/537.36" version="24.8.4">
  <diagram name="Page-1" id="vBnKskoRQ8al3mpe06BZ">
    <mxGraphModel dx="975" dy="1354" grid="1" gridSize="10" guides="1" tooltips="1" connect="1" arrows="1" fold="1" page="1" pageScale="1" pageWidth="1100" pageHeight="850" math="0" shadow="0">
      <root>
        <mxCell id="0" />
        <mxCell id="1" parent="0" />
        <mxCell id="MjJoKbZfdIGcCqcijv6L-1" value="Main Program making a request" style="rounded=0;whiteSpace=wrap;html=1;" vertex="1" parent="1">
          <mxGeometry x="110" y="270" width="120" height="60" as="geometry" />
        </mxCell>
        <mxCell id="MjJoKbZfdIGcCqcijv6L-2" value="input.json" style="rounded=0;whiteSpace=wrap;html=1;" vertex="1" parent="1">
          <mxGeometry x="361" y="270" width="120" height="60" as="geometry" />
        </mxCell>
        <mxCell id="MjJoKbZfdIGcCqcijv6L-3" value="substring substituter&lt;div&gt;microservice&lt;/div&gt;" style="rounded=0;whiteSpace=wrap;html=1;" vertex="1" parent="1">
          <mxGeometry x="650" y="270" width="120" height="60" as="geometry" />
        </mxCell>
        <mxCell id="MjJoKbZfdIGcCqcijv6L-4" value="" style="endArrow=none;dashed=1;html=1;rounded=0;entryX=0.5;entryY=1;entryDx=0;entryDy=0;" edge="1" parent="1" target="MjJoKbZfdIGcCqcijv6L-2">
          <mxGeometry width="50" height="50" relative="1" as="geometry">
            <mxPoint x="420" y="620" as="sourcePoint" />
            <mxPoint x="360" y="560" as="targetPoint" />
          </mxGeometry>
        </mxCell>
        <mxCell id="MjJoKbZfdIGcCqcijv6L-5" value="" style="endArrow=none;dashed=1;html=1;rounded=0;entryX=0.5;entryY=1;entryDx=0;entryDy=0;" edge="1" parent="1">
          <mxGeometry width="50" height="50" relative="1" as="geometry">
            <mxPoint x="170" y="360" as="sourcePoint" />
            <mxPoint x="170.5" y="330" as="targetPoint" />
          </mxGeometry>
        </mxCell>
        <mxCell id="MjJoKbZfdIGcCqcijv6L-6" value="" style="endArrow=none;dashed=1;html=1;rounded=0;entryX=0.5;entryY=1;entryDx=0;entryDy=0;" edge="1" parent="1">
          <mxGeometry width="50" height="50" relative="1" as="geometry">
            <mxPoint x="710" y="360" as="sourcePoint" />
            <mxPoint x="710.5" y="330" as="targetPoint" />
          </mxGeometry>
        </mxCell>
        <mxCell id="MjJoKbZfdIGcCqcijv6L-9" value="" style="rounded=0;whiteSpace=wrap;html=1;" vertex="1" parent="1">
          <mxGeometry x="160" y="360" width="20" height="260" as="geometry" />
        </mxCell>
        <mxCell id="MjJoKbZfdIGcCqcijv6L-10" value="" style="rounded=0;whiteSpace=wrap;html=1;" vertex="1" parent="1">
          <mxGeometry x="700" y="360" width="20" height="260" as="geometry" />
        </mxCell>
        <mxCell id="MjJoKbZfdIGcCqcijv6L-11" value="" style="rounded=0;whiteSpace=wrap;html=1;fillColor=none;" vertex="1" parent="1">
          <mxGeometry x="130" y="390" width="290" height="40" as="geometry" />
        </mxCell>
        <mxCell id="MjJoKbZfdIGcCqcijv6L-12" value="loop" style="text;html=1;align=center;verticalAlign=middle;whiteSpace=wrap;rounded=0;" vertex="1" parent="1">
          <mxGeometry x="116" y="382" width="60" height="30" as="geometry" />
        </mxCell>
        <mxCell id="MjJoKbZfdIGcCqcijv6L-13" value="" style="endArrow=classic;html=1;rounded=0;verticalAlign=top;" edge="1" parent="1">
          <mxGeometry width="50" height="50" relative="1" as="geometry">
            <mxPoint x="180" y="412" as="sourcePoint" />
            <mxPoint x="420" y="412" as="targetPoint" />
          </mxGeometry>
        </mxCell>
        <mxCell id="MjJoKbZfdIGcCqcijv6L-16" value="&lt;font style=&quot;font-size: 11px;&quot;&gt;Check for status completed&lt;/font&gt;" style="edgeLabel;html=1;align=center;verticalAlign=middle;resizable=0;points=[];" vertex="1" connectable="0" parent="MjJoKbZfdIGcCqcijv6L-13">
          <mxGeometry x="0.1636" relative="1" as="geometry">
            <mxPoint as="offset" />
          </mxGeometry>
        </mxCell>
        <mxCell id="MjJoKbZfdIGcCqcijv6L-17" value="" style="endArrow=classic;html=1;rounded=0;verticalAlign=top;" edge="1" parent="1">
          <mxGeometry width="50" height="50" relative="1" as="geometry">
            <mxPoint x="180" y="370" as="sourcePoint" />
            <mxPoint x="420" y="370" as="targetPoint" />
          </mxGeometry>
        </mxCell>
        <mxCell id="MjJoKbZfdIGcCqcijv6L-18" value="&lt;font style=&quot;font-size: 11px;&quot;&gt;Write json object to json file&lt;/font&gt;" style="edgeLabel;html=1;align=center;verticalAlign=middle;resizable=0;points=[];" vertex="1" connectable="0" parent="MjJoKbZfdIGcCqcijv6L-17">
          <mxGeometry x="0.1636" relative="1" as="geometry">
            <mxPoint as="offset" />
          </mxGeometry>
        </mxCell>
        <mxCell id="MjJoKbZfdIGcCqcijv6L-19" value="" style="rounded=0;whiteSpace=wrap;html=1;fillColor=none;" vertex="1" parent="1">
          <mxGeometry x="420" y="340" width="290" height="90" as="geometry" />
        </mxCell>
        <mxCell id="MjJoKbZfdIGcCqcijv6L-20" value="loop" style="text;html=1;align=center;verticalAlign=middle;whiteSpace=wrap;rounded=0;" vertex="1" parent="1">
          <mxGeometry x="406" y="336" width="60" height="30" as="geometry" />
        </mxCell>
        <mxCell id="MjJoKbZfdIGcCqcijv6L-21" value="" style="endArrow=classic;html=1;rounded=0;verticalAlign=top;entryX=0.004;entryY=0.332;entryDx=0;entryDy=0;entryPerimeter=0;exitX=0.966;exitY=0.333;exitDx=0;exitDy=0;exitPerimeter=0;" edge="1" parent="1" source="MjJoKbZfdIGcCqcijv6L-19" target="MjJoKbZfdIGcCqcijv6L-19">
          <mxGeometry width="50" height="50" relative="1" as="geometry">
            <mxPoint x="627.4074074074074" y="590" as="sourcePoint" />
            <mxPoint x="466" y="382.0015382927365" as="targetPoint" />
          </mxGeometry>
        </mxCell>
        <mxCell id="MjJoKbZfdIGcCqcijv6L-22" value="process_request()" style="edgeLabel;html=1;align=center;verticalAlign=middle;resizable=0;points=[];" vertex="1" connectable="0" parent="MjJoKbZfdIGcCqcijv6L-21">
          <mxGeometry x="0.1636" relative="1" as="geometry">
            <mxPoint as="offset" />
          </mxGeometry>
        </mxCell>
        <mxCell id="MjJoKbZfdIGcCqcijv6L-23" value="" style="endArrow=classic;html=1;rounded=0;verticalAlign=top;entryX=0.004;entryY=0.332;entryDx=0;entryDy=0;entryPerimeter=0;exitX=0.966;exitY=0.333;exitDx=0;exitDy=0;exitPerimeter=0;" edge="1" parent="1">
          <mxGeometry width="50" height="50" relative="1" as="geometry">
            <mxPoint x="700" y="411.69" as="sourcePoint" />
            <mxPoint x="421" y="411.69" as="targetPoint" />
          </mxGeometry>
        </mxCell>
        <mxCell id="MjJoKbZfdIGcCqcijv6L-24" value="process_request()" style="edgeLabel;html=1;align=center;verticalAlign=middle;resizable=0;points=[];" vertex="1" connectable="0" parent="MjJoKbZfdIGcCqcijv6L-23">
          <mxGeometry x="0.1636" relative="1" as="geometry">
            <mxPoint as="offset" />
          </mxGeometry>
        </mxCell>
        <mxCell id="MjJoKbZfdIGcCqcijv6L-26" value="substring substituter&lt;div&gt;microservice&lt;/div&gt;" style="rounded=0;whiteSpace=wrap;html=1;" vertex="1" parent="1">
          <mxGeometry x="880" y="270" width="120" height="60" as="geometry" />
        </mxCell>
        <mxCell id="MjJoKbZfdIGcCqcijv6L-28" value="" style="endArrow=none;dashed=1;html=1;rounded=0;entryX=0.5;entryY=1;entryDx=0;entryDy=0;" edge="1" parent="1">
          <mxGeometry width="50" height="50" relative="1" as="geometry">
            <mxPoint x="940" y="359" as="sourcePoint" />
            <mxPoint x="940.5" y="329" as="targetPoint" />
          </mxGeometry>
        </mxCell>
        <mxCell id="MjJoKbZfdIGcCqcijv6L-29" value="" style="rounded=0;whiteSpace=wrap;html=1;" vertex="1" parent="1">
          <mxGeometry x="930" y="359" width="20" height="260" as="geometry" />
        </mxCell>
        <mxCell id="MjJoKbZfdIGcCqcijv6L-30" value="" style="rounded=0;whiteSpace=wrap;html=1;fillColor=none;" vertex="1" parent="1">
          <mxGeometry x="720" y="360" width="230" height="90" as="geometry" />
        </mxCell>
        <mxCell id="MjJoKbZfdIGcCqcijv6L-31" value="loop" style="text;html=1;align=center;verticalAlign=middle;whiteSpace=wrap;rounded=0;" vertex="1" parent="1">
          <mxGeometry x="710" y="352" width="60" height="30" as="geometry" />
        </mxCell>
        <mxCell id="MjJoKbZfdIGcCqcijv6L-32" value="" style="endArrow=classic;html=1;rounded=0;verticalAlign=top;" edge="1" parent="1">
          <mxGeometry width="50" height="50" relative="1" as="geometry">
            <mxPoint x="720" y="381.5" as="sourcePoint" />
            <mxPoint x="930" y="382" as="targetPoint" />
          </mxGeometry>
        </mxCell>
        <mxCell id="MjJoKbZfdIGcCqcijv6L-33" value="&lt;font style=&quot;font-size: 11px;&quot;&gt;find_replacement(words)&lt;/font&gt;" style="edgeLabel;html=1;align=center;verticalAlign=middle;resizable=0;points=[];" vertex="1" connectable="0" parent="MjJoKbZfdIGcCqcijv6L-32">
          <mxGeometry x="0.1636" relative="1" as="geometry">
            <mxPoint as="offset" />
          </mxGeometry>
        </mxCell>
        <mxCell id="MjJoKbZfdIGcCqcijv6L-37" value="" style="endArrow=classic;html=1;rounded=0;verticalAlign=top;entryX=0.004;entryY=0.332;entryDx=0;entryDy=0;entryPerimeter=0;" edge="1" parent="1">
          <mxGeometry width="50" height="50" relative="1" as="geometry">
            <mxPoint x="930" y="409.57" as="sourcePoint" />
            <mxPoint x="721" y="409.57" as="targetPoint" />
          </mxGeometry>
        </mxCell>
        <mxCell id="MjJoKbZfdIGcCqcijv6L-38" value="replacement words" style="edgeLabel;html=1;align=center;verticalAlign=middle;resizable=0;points=[];" vertex="1" connectable="0" parent="MjJoKbZfdIGcCqcijv6L-37">
          <mxGeometry x="0.1636" relative="1" as="geometry">
            <mxPoint as="offset" />
          </mxGeometry>
        </mxCell>
      </root>
    </mxGraphModel>
  </diagram>
</mxfile>
